<svg width="64" height="63" viewBox="0 0 64 63" fill="none" xmlns="http://www.w3.org/2000/svg">
<path d="M49.0273 26.9597C44.7705 26.9597 40.9395 30.365 40.9395 35.0475C40.9395 39.3042 44.3449 43.1354 49.0273 43.1354C53.7097 43.1354 57.1151 39.7299 57.1151 35.0475C56.6895 30.365 53.284 26.9597 49.0273 26.9597ZM49.0273 29.088C52.007 29.088 54.5611 31.6422 54.5611 34.6219C54.5611 37.6016 52.007 40.1556 49.0273 40.1556C46.0476 40.1556 43.4935 37.6016 43.4935 34.6219C43.4935 31.6422 45.6219 29.088 49.0273 29.088Z" fill="black"/>
<path d="M49.0273 45.2639C40.9395 45.2639 34.5543 51.649 34.5543 59.7368V61.8652C34.5543 62.2909 34.98 63.1422 35.8313 63.1422H62.6489C63.0746 63.1422 63.9259 62.7165 63.9259 61.8652V59.7368C63.5003 51.649 57.1151 45.2639 49.0273 45.2639ZM49.0273 47.3922C55.8381 47.3922 61.3719 52.926 61.3719 59.7368V61.0138H36.6827V59.7368C36.6827 52.926 42.2165 47.3922 49.0273 47.3922Z" fill="black"/>
<path d="M20.9325 0.142114C20.5068 0.142114 19.6555 0.567737 19.6555 1.41909V6.52725C17.5271 7.3786 15.3987 8.65558 13.2703 9.9326L9.01357 7.37852C8.58789 6.95285 7.73654 7.37855 7.31086 7.80422L0.500051 19.2975C0.0743754 19.7232 0.500051 20.5745 0.925727 21.0002L5.18248 23.5543C5.18248 24.8313 4.75681 26.1083 4.75681 27.3853C4.75681 28.6624 4.75681 29.9394 5.18248 31.2164L0.925727 33.7705C0.500051 33.3448 0.500051 34.1962 0.500051 34.6219L7.31086 46.115C7.73654 46.5407 8.16221 46.9664 9.01357 46.5407L13.2703 43.9867C14.973 45.6894 17.1014 46.5407 19.6555 47.8177V52.9259C19.6555 53.3515 20.0811 54.2028 20.9325 54.2028H32.4257C32.8514 54.2028 33.7028 53.7772 33.7028 52.9259C33.7028 52.5002 33.2771 51.6489 32.4257 51.6489H21.7838V46.9664C21.7838 46.5408 21.3582 46.115 20.9325 45.6893C18.3784 44.838 15.8244 43.561 13.696 41.4326C13.2703 41.0069 12.8446 41.0069 12.419 41.4326L9.01357 44.4124L3.47978 34.6219L7.31086 32.4935C7.73654 32.0678 8.16221 31.6421 7.73654 31.2164C7.31086 29.9394 7.31086 28.6623 7.31086 26.9596C7.31086 25.6826 7.31086 24.4056 7.73654 22.7029C7.73654 22.2772 7.73654 21.8516 7.31086 21.4259L3.47978 19.2975L9.01357 9.5069L12.8446 11.6353C13.2703 12.061 13.696 11.6353 14.1217 11.6353C16.2501 9.93258 18.3784 8.22987 21.3582 7.37852C21.7838 7.37852 22.2095 6.9529 22.2095 6.10155V1.41909H33.7028V6.10155C33.7028 6.52722 34.1284 6.95285 34.5541 7.37852C37.1082 8.22987 39.6622 9.5069 41.7906 11.6353C42.2163 12.061 42.6419 12.061 43.0676 11.6353L46.8987 9.5069L52.4325 19.2975L48.6014 21.4259C48.1757 21.8516 47.75 22.2772 48.1757 22.7029C48.1757 23.1285 48.1757 23.1286 48.1757 23.5543C48.1757 23.98 49.0271 24.4056 49.4528 24.4056C49.8784 24.4056 50.3041 23.5543 50.3041 23.1286L54.5609 20.5745C54.9865 20.1488 55.4122 19.7232 54.9865 18.8718L48.1757 7.37852C47.75 6.95285 47.3244 6.52728 46.473 6.95295L42.2163 9.5069C40.5136 7.8042 38.3852 6.5272 35.8311 5.67585V0.567815C35.8311 0.14214 35.4055 -0.70929 34.5541 -0.70929L20.9325 0.142114Z" fill="black"/>
<path d="M27.3178 15.8921C20.9327 15.8921 16.2502 21.0002 16.2502 26.9597C16.2502 32.9191 21.3584 38.0273 27.3178 38.0273C33.2773 38.0273 38.3854 32.9191 38.3854 26.9597C38.3854 21.0002 33.703 15.8921 27.3178 15.8921ZM27.3178 18.0205C32.4259 18.0205 36.257 21.8516 36.257 26.9597C36.257 32.0678 32.4259 35.8989 27.3178 35.8989C22.2097 35.8989 18.3786 32.0678 18.3786 26.9597C18.3786 21.8516 22.6354 18.0205 27.3178 18.0205Z" fill="black"/>
</svg>
