<svg width="70" height="52" viewBox="0 0 70 52" fill="none" xmlns="http://www.w3.org/2000/svg">
<path d="M52.6 33.4998C52 33.4998 51.6 33.8998 51.6 34.4998V49.8998H2V4.69983H45.4C46 4.69983 46.4 4.29983 46.4 3.69983C46.4 3.09983 46 2.69983 45.4 2.69983H1C0.4 2.69983 0 3.09983 0 3.69983V50.8998C0 51.4998 0.4 51.8998 1 51.8998H52.6C53.2 51.8998 53.6 51.4998 53.6 50.8998V34.4998C53.6 33.9998 53.1 33.4998 52.6 33.4998Z" fill="black"/>
<path d="M29.9 11.1998C29.9 10.5998 29.5 10.1998 28.9 10.1998H8.19995C7.59995 10.1998 7.19995 10.5998 7.19995 11.1998C7.19995 11.7998 7.59995 12.1998 8.19995 12.1998H28.9C29.5 12.1998 29.9 11.6998 29.9 11.1998Z" fill="black"/>
<path d="M8.19995 20.2999H18.1C18.7 20.2999 19.1 19.8999 19.1 19.2999C19.1 18.6999 18.7 18.2999 18.1 18.2999H8.19995C7.59995 18.2999 7.19995 18.6999 7.19995 19.2999C7.19995 19.8999 7.69995 20.2999 8.19995 20.2999Z" fill="black"/>
<path d="M27.2 27.4999C27.2 26.8999 26.8 26.4999 26.2 26.4999H8.19995C7.59995 26.4999 7.19995 26.8999 7.19995 27.4999C7.19995 28.0999 7.59995 28.4999 8.19995 28.4999H26.2C26.7 28.4999 27.2 27.9999 27.2 27.4999Z" fill="black"/>
<path d="M8.19995 36.5999H15.6C16.2 36.5999 16.6 36.1999 16.6 35.5999C16.6 34.9999 16.2 34.5999 15.6 34.5999H8.19995C7.59995 34.5999 7.19995 34.9999 7.19995 35.5999C7.19995 36.1999 7.69995 36.5999 8.19995 36.5999Z" fill="black"/>
<path d="M8.19995 44.7999H19.4C20 44.7999 20.4 44.3999 20.4 43.7999C20.4 43.1999 20 42.7999 19.4 42.7999H8.19995C7.59995 42.7999 7.19995 43.1999 7.19995 43.7999C7.19995 44.3999 7.69995 44.7999 8.19995 44.7999Z" fill="black"/>
<path d="M67.6999 1.59988C66.5999 0.599878 65.2999 -0.00012207 63.7999 -0.00012207C61.8999 -0.00012207 60 0.899878 58.2999 2.59988L28.3 32.5999C28.2 32.6999 28.2 32.6999 28.2 32.7999L28.1 32.8999L24.8 43.3999C24.7 43.7999 24.8 44.1999 25.1 44.3999C25.3 44.5999 25.5 44.6999 25.8 44.6999C25.9 44.6999 26 44.6999 26.1 44.5999L36.4 41.0999L36.5 40.9999C36.6 40.9999 36.7 40.8999 36.7 40.8999L66.6999 10.8999C70.2999 7.39988 69.7999 3.69988 67.6999 1.59988ZM59 4.79988L61.7999 7.59988L64.5999 10.3999L36 38.8999L30.4 33.2999L59 4.79988ZM29.5 35.1999L34.2 39.8999L27.3 42.1999L29.5 35.1999ZM65.9 8.89988L60.4 3.39988C62.5 1.69988 64.6999 1.59988 66.1999 3.09988C67.7999 4.49988 67.6 6.79988 65.9 8.89988Z" fill="black"/>
</svg>
