<svg width="77" height="61" viewBox="0 0 77 61" fill="none" xmlns="http://www.w3.org/2000/svg">
<path d="M76.2 1.09988C76.2 0.999878 76.2 0.999878 76.2 0.899878V0.799878C76.2 0.699878 76.2 0.699878 76.1 0.599878C76.1 0.599878 76.1 0.599878 76.1 0.499878C76.1 0.499878 76.1 0.499878 76 0.399878C76 0.299878 75.9 0.299878 75.9 0.199878L75.8 0.0998779C75.8 0.0998779 75.8 0.0998779 75.7 0.0998779H75.6C75.6 0.0998779 75.5 0.0998779 75.5 -0.00012207C75.4 -0.00012207 75.4 -0.00012207 75.3 -0.00012207H75.2C75.1 -0.00012207 75 -0.00012207 74.9 0.0998779C74.9 0.0998779 74.9 0.0998779 74.8 0.0998779L0.6 33.1999C0.2 33.3999 0 33.7999 0 34.1999C0 34.5999 0.4 34.9999 0.8 35.0999L21.2 39.0999L28.7 59.7999C28.7 59.8999 28.8 59.8999 28.8 59.9999C28.9 60.0999 28.9 60.1999 29 60.1999C29 60.1999 29 60.1999 29.1 60.1999C29.2 60.2999 29.3 60.2999 29.4 60.2999C29.5 60.2999 29.5 60.2999 29.6 60.2999C29.7 60.2999 29.9 60.2999 30 60.1999C30 60.1999 30.1 60.1999 30.1 60.0999C30.2 60.0999 30.3 59.9999 30.3 59.8999C30.3 59.8999 30.3 59.8999 30.4 59.8999L41.3 46.3999L60 53.7999C60.3 53.8999 60.6 53.8999 60.8 53.7999C61 53.6999 61.2 53.3999 61.3 53.1999L76.2 1.29988C76.2 1.19988 76.2 1.19988 76.2 1.09988ZM4.3 33.7999L66.1 6.19988L21.8 37.1999L4.3 33.7999ZM65.9 8.69988L32.3 41.6999C32.2 41.7999 32.1 41.8999 32.1 42.0999C32.1 42.1999 32.1 42.1999 32 42.2999L29.4 55.7999L23.2 38.6999L65.9 8.69988ZM31.4 55.7999L33.7 43.7999L39.3 45.8999L31.4 55.7999ZM59.7 51.5999L34.8 42.0999L73.2 4.39988L59.7 51.5999Z" fill="black"/>
</svg>
