<svg width="39" height="73" viewBox="0 0 39 73" fill="none" xmlns="http://www.w3.org/2000/svg">
<path d="M0.722222 72.9999C0.361111 72.9999 0 72.633 0 72.2662V0.733546C0 0.366712 0.361111 -0.00012207 0.722222 -0.00012207H37.9167C38.2778 -0.00012207 38.6389 0.366712 38.6389 0.733546V71.8994C38.6389 72.2662 38.2778 72.633 37.9167 72.633H0.722222V72.9999ZM37.1944 71.1657V1.83405H1.80556V71.1657H37.1944ZM6.86111 17.9748C6.5 17.9748 6.13889 17.6079 6.13889 17.2411V11.0049C6.13889 10.6381 6.5 10.2712 6.86111 10.2712H32.5C32.8611 10.2712 33.2222 10.6381 33.2222 11.0049V16.8743C33.2222 17.2411 32.8611 17.6079 32.5 17.6079H6.86111V17.9748ZM31.4167 16.1406V12.1054H7.58333V16.1406H31.4167ZM7.22222 30.0803C6.5 30.0803 6.13889 29.3466 6.13889 28.9798V23.1104C6.13889 22.7436 6.5 22.3768 6.86111 22.3768H32.5C32.8611 22.3768 33.2222 22.7436 33.2222 23.1104V28.9798C33.5833 29.3466 33.2222 30.0803 32.5 30.0803H7.22222ZM31.7778 28.2461V24.2109H7.94444V28.2461H31.7778ZM7.22222 41.4521C6.86111 41.4521 6.5 41.0853 6.5 40.7185V34.8491C6.5 34.4823 6.86111 34.1155 7.22222 34.1155H32.5C32.8611 34.1155 33.2222 34.4823 33.2222 34.8491V40.7185C33.2222 41.0853 32.8611 41.4521 32.5 41.4521H7.22222ZM31.7778 39.618V35.5828H7.94444V39.618H31.7778ZM24.5556 56.1255C24.1944 56.1255 23.8333 55.7587 23.8333 55.3918V46.5878C23.8333 46.221 24.1944 45.8542 24.5556 45.8542H32.5C32.8611 45.8542 33.2222 46.221 33.2222 46.5878V55.025C33.2222 55.3918 32.8611 55.7587 32.5 55.7587H24.5556V56.1255ZM31.7778 54.2913V47.3215H25.2778V54.2913H31.7778ZM1.80556 58.3265C1.44444 57.9597 1.44444 57.5928 1.80556 56.8592C2.16667 56.4923 2.52778 56.4923 2.88889 56.8592L4.33333 57.9597C4.69444 58.3265 4.69444 58.6934 4.33333 59.427C3.97222 60.1607 3.61111 59.7939 3.25 59.427L1.80556 58.3265ZM6.5 61.9949C6.13889 61.628 6.13889 61.2612 6.5 60.5275C6.86111 60.1607 7.22222 60.1607 7.58333 60.5275L9.02778 61.628C9.38889 61.9949 9.38889 62.3617 9.02778 63.0954C8.66667 63.829 8.30556 63.4622 7.94444 63.0954L6.5 61.9949ZM11.1944 65.6632C10.8333 65.2964 10.8333 64.9295 11.1944 64.1959C11.5556 63.829 11.9167 63.829 12.2778 64.1959L13.7222 65.2964C14.0833 65.6632 14.0833 66.03 13.7222 66.7637C13.3611 67.1305 13 67.1305 12.6389 66.7637L11.1944 65.6632ZM15.5278 69.3315C15.1667 68.9647 15.1667 68.5979 15.5278 67.8642C15.8889 67.4974 16.25 67.4974 16.6111 67.8642L18.0556 68.9647C18.4167 69.3315 18.4167 69.6984 18.0556 70.432C17.6944 70.7989 17.3333 70.7989 16.9722 70.432L15.5278 69.3315Z" fill="black"/>
</svg>
